<mxfile host="app.diagrams.net" modified="2024-07-15T04:14:17.754Z" agent="Mozilla/5.0 (iPad; CPU OS 17_5 like Mac OS X) AppleWebKit/605.1.15 (KHTML, like Gecko) EdgiOS/126.0.2592.86 Version/17.0 Mobile/15E148 Safari/604.1" etag="nA41BXPxY2N3RTUqKevB" version="24.6.5" type="github">
  <diagram name="Diagrama de Sequência" id="0">
    <mxGraphModel dx="1391" dy="2794" grid="1" gridSize="10" guides="1" tooltips="1" connect="1" arrows="1" fold="1" page="1" pageScale="1" pageWidth="827" pageHeight="1169" math="0" shadow="0">
      <root>
        <mxCell id="0" />
        <mxCell id="1" parent="0" />
        <mxCell id="13" value="" style="edgeStyle=orthogonalEdgeStyle;rounded=0;orthogonalLoop=1;jettySize=auto;html=1;" parent="1" target="5" edge="1">
          <mxGeometry relative="1" as="geometry">
            <mxPoint x="350" as="sourcePoint" />
          </mxGeometry>
        </mxCell>
        <mxCell id="14" value="" style="edgeStyle=orthogonalEdgeStyle;rounded=0;orthogonalLoop=1;jettySize=auto;html=1;" parent="1" target="6" edge="1">
          <mxGeometry relative="1" as="geometry">
            <mxPoint x="490" as="sourcePoint" />
          </mxGeometry>
        </mxCell>
        <mxCell id="17" value="" style="edgeStyle=orthogonalEdgeStyle;rounded=0;orthogonalLoop=1;jettySize=auto;html=1;" parent="1" target="8" edge="1">
          <mxGeometry relative="1" as="geometry">
            <mxPoint x="700" y="390" as="sourcePoint" />
          </mxGeometry>
        </mxCell>
        <mxCell id="20" value="" style="edgeStyle=orthogonalEdgeStyle;rounded=0;orthogonalLoop=1;jettySize=auto;html=1;" parent="1" source="8" edge="1">
          <mxGeometry relative="1" as="geometry">
            <mxPoint x="700" y="390" as="targetPoint" />
          </mxGeometry>
        </mxCell>
        <mxCell id="MgS43147Ba-5v7FGdyHG-24" value="ad" style="shape=umlFrame;whiteSpace=wrap;html=1;pointerEvents=0;" vertex="1" parent="1">
          <mxGeometry x="1010" y="-500" width="150" height="60" as="geometry" />
        </mxCell>
        <mxCell id="MgS43147Ba-5v7FGdyHG-25" value="Componentes de um diagrama de sequência&lt;div&gt;Atores&lt;/div&gt;&lt;div&gt;Objetos que participam da interação&amp;nbsp;&lt;/div&gt;&lt;div&gt;Mensagens trocadas e seus parâmetros&lt;/div&gt;&lt;div&gt;Linha de vida e caixa de ativação&lt;/div&gt;&lt;div&gt;Operadores de controle estruturado&lt;/div&gt;&lt;div&gt;Foco de controle&lt;/div&gt;&lt;div&gt;Gaste&lt;/div&gt;&lt;div&gt;&lt;br&gt;&lt;/div&gt;" style="text;html=1;align=left;verticalAlign=middle;whiteSpace=wrap;rounded=0;" vertex="1" parent="1">
          <mxGeometry x="1010" y="-750" width="290" height="30" as="geometry" />
        </mxCell>
        <mxCell id="MgS43147Ba-5v7FGdyHG-26" value="Actor" style="shape=umlActor;verticalLabelPosition=bottom;verticalAlign=top;html=1;" vertex="1" parent="1">
          <mxGeometry x="1350" y="-790" width="30" height="60" as="geometry" />
        </mxCell>
        <mxCell id="MgS43147Ba-5v7FGdyHG-28" value=":Object" style="shape=umlLifeline;perimeter=lifelinePerimeter;whiteSpace=wrap;html=1;container=1;dropTarget=0;collapsible=0;recursiveResize=0;outlineConnect=0;portConstraint=eastwest;newEdgeStyle={&quot;curved&quot;:0,&quot;rounded&quot;:0};" vertex="1" parent="1">
          <mxGeometry x="1500" y="-790" width="100" height="490" as="geometry" />
        </mxCell>
        <mxCell id="MgS43147Ba-5v7FGdyHG-39" value="" style="html=1;points=[[0,0,0,0,5],[0,1,0,0,-5],[1,0,0,0,5],[1,1,0,0,-5]];perimeter=orthogonalPerimeter;outlineConnect=0;targetShapes=umlLifeline;portConstraint=eastwest;newEdgeStyle={&quot;curved&quot;:0,&quot;rounded&quot;:0};" vertex="1" parent="MgS43147Ba-5v7FGdyHG-28">
          <mxGeometry x="45" y="80" width="10" height="80" as="geometry" />
        </mxCell>
        <mxCell id="MgS43147Ba-5v7FGdyHG-87" value="" style="html=1;points=[[0,0,0,0,5],[0,1,0,0,-5],[1,0,0,0,5],[1,1,0,0,-5]];perimeter=orthogonalPerimeter;outlineConnect=0;targetShapes=umlLifeline;portConstraint=eastwest;newEdgeStyle={&quot;curved&quot;:0,&quot;rounded&quot;:0};" vertex="1" parent="MgS43147Ba-5v7FGdyHG-28">
          <mxGeometry x="45" y="190" width="10" height="40" as="geometry" />
        </mxCell>
        <mxCell id="MgS43147Ba-5v7FGdyHG-103" value="" style="html=1;points=[[0,0,0,0,5],[0,1,0,0,-5],[1,0,0,0,5],[1,1,0,0,-5]];perimeter=orthogonalPerimeter;outlineConnect=0;targetShapes=umlLifeline;portConstraint=eastwest;newEdgeStyle={&quot;curved&quot;:0,&quot;rounded&quot;:0};" vertex="1" parent="MgS43147Ba-5v7FGdyHG-28">
          <mxGeometry x="45" y="350" width="10" height="40" as="geometry" />
        </mxCell>
        <mxCell id="MgS43147Ba-5v7FGdyHG-40" value=":Object" style="shape=umlLifeline;perimeter=lifelinePerimeter;whiteSpace=wrap;html=1;container=1;dropTarget=0;collapsible=0;recursiveResize=0;outlineConnect=0;portConstraint=eastwest;newEdgeStyle={&quot;curved&quot;:0,&quot;rounded&quot;:0};" vertex="1" parent="1">
          <mxGeometry x="1690" y="-790" width="100" height="180" as="geometry" />
        </mxCell>
        <mxCell id="MgS43147Ba-5v7FGdyHG-41" value="" style="html=1;points=[[0,0,0,0,5],[0,1,0,0,-5],[1,0,0,0,5],[1,1,0,0,-5]];perimeter=orthogonalPerimeter;outlineConnect=0;targetShapes=umlLifeline;portConstraint=eastwest;newEdgeStyle={&quot;curved&quot;:0,&quot;rounded&quot;:0};" vertex="1" parent="MgS43147Ba-5v7FGdyHG-40">
          <mxGeometry x="45" y="80" width="10" height="80" as="geometry" />
        </mxCell>
        <mxCell id="MgS43147Ba-5v7FGdyHG-96" value="" style="shape=umlDestroy;whiteSpace=wrap;html=1;strokeWidth=3;targetShapes=umlLifeline;" vertex="1" parent="MgS43147Ba-5v7FGdyHG-40">
          <mxGeometry x="35" y="150" width="30" height="30" as="geometry" />
        </mxCell>
        <mxCell id="MgS43147Ba-5v7FGdyHG-45" value="Mensagem síncrona" style="endArrow=block;endFill=1;html=1;edgeStyle=orthogonalEdgeStyle;align=left;verticalAlign=top;rounded=0;exitX=1;exitY=0;exitDx=0;exitDy=5;exitPerimeter=0;entryX=0;entryY=0;entryDx=0;entryDy=5;entryPerimeter=0;" edge="1" parent="1" source="MgS43147Ba-5v7FGdyHG-39" target="MgS43147Ba-5v7FGdyHG-41">
          <mxGeometry x="-0.2778" y="5" relative="1" as="geometry">
            <mxPoint x="1550" y="-779.9999999999999" as="sourcePoint" />
            <mxPoint x="1750" y="-780" as="targetPoint" />
            <mxPoint as="offset" />
          </mxGeometry>
        </mxCell>
        <mxCell id="MgS43147Ba-5v7FGdyHG-46" value="1" style="edgeLabel;resizable=0;html=1;align=left;verticalAlign=bottom;" connectable="0" vertex="1" parent="MgS43147Ba-5v7FGdyHG-45">
          <mxGeometry x="-1" relative="1" as="geometry">
            <mxPoint x="35" y="-5" as="offset" />
          </mxGeometry>
        </mxCell>
        <mxCell id="MgS43147Ba-5v7FGdyHG-86" value="Mensagem assíncrona" style="html=1;verticalAlign=bottom;labelBackgroundColor=none;endArrow=open;endFill=0;rounded=0;" edge="1" parent="1" source="MgS43147Ba-5v7FGdyHG-39" target="MgS43147Ba-5v7FGdyHG-41">
          <mxGeometry width="160" relative="1" as="geometry">
            <mxPoint x="1560" y="-750" as="sourcePoint" />
            <mxPoint x="1720" y="-750" as="targetPoint" />
          </mxGeometry>
        </mxCell>
        <mxCell id="MgS43147Ba-5v7FGdyHG-91" value="Criação de participante" style="html=1;verticalAlign=bottom;labelBackgroundColor=none;endArrow=open;endFill=0;dashed=1;rounded=0;" edge="1" parent="1" source="MgS43147Ba-5v7FGdyHG-87">
          <mxGeometry width="160" relative="1" as="geometry">
            <mxPoint x="1560" y="-580" as="sourcePoint" />
            <mxPoint x="1690" y="-580" as="targetPoint" />
          </mxGeometry>
        </mxCell>
        <mxCell id="MgS43147Ba-5v7FGdyHG-90" value=":Object" style="shape=umlLifeline;perimeter=lifelinePerimeter;whiteSpace=wrap;html=1;container=1;dropTarget=0;collapsible=0;recursiveResize=0;outlineConnect=0;portConstraint=eastwest;newEdgeStyle={&quot;curved&quot;:0,&quot;rounded&quot;:0};" vertex="1" parent="1">
          <mxGeometry x="1690" y="-600" width="100" height="300" as="geometry" />
        </mxCell>
        <mxCell id="MgS43147Ba-5v7FGdyHG-104" value="" style="html=1;points=[[0,0,0,0,5],[0,1,0,0,-5],[1,0,0,0,5],[1,1,0,0,-5]];perimeter=orthogonalPerimeter;outlineConnect=0;targetShapes=umlLifeline;portConstraint=eastwest;newEdgeStyle={&quot;curved&quot;:0,&quot;rounded&quot;:0};" vertex="1" parent="MgS43147Ba-5v7FGdyHG-90">
          <mxGeometry x="45" y="160" width="10" height="40" as="geometry" />
        </mxCell>
        <mxCell id="MgS43147Ba-5v7FGdyHG-99" value="Exclusão de participante" style="html=1;verticalAlign=bottom;endArrow=open;dashed=1;endSize=8;curved=0;rounded=0;entryX=0.5;entryY=0.667;entryDx=0;entryDy=0;entryPerimeter=0;" edge="1" parent="1">
          <mxGeometry relative="1" as="geometry">
            <mxPoint x="1550" y="-626" as="sourcePoint" />
            <mxPoint x="1733" y="-626" as="targetPoint" />
          </mxGeometry>
        </mxCell>
        <mxCell id="MgS43147Ba-5v7FGdyHG-100" value="" style="html=1;points=[[0,0,0,0,5],[0,1,0,0,-5],[1,0,0,0,5],[1,1,0,0,-5]];perimeter=orthogonalPerimeter;outlineConnect=0;targetShapes=umlLifeline;portConstraint=eastwest;newEdgeStyle={&quot;curved&quot;:0,&quot;rounded&quot;:0};" vertex="1" parent="1">
          <mxGeometry x="1735" y="-500" width="10" height="40" as="geometry" />
        </mxCell>
        <mxCell id="MgS43147Ba-5v7FGdyHG-101" value="self call" style="html=1;align=left;spacingLeft=2;endArrow=block;rounded=0;edgeStyle=orthogonalEdgeStyle;curved=0;rounded=0;exitX=1;exitY=0;exitDx=0;exitDy=5;exitPerimeter=0;" edge="1" target="MgS43147Ba-5v7FGdyHG-100" parent="1" source="MgS43147Ba-5v7FGdyHG-100">
          <mxGeometry relative="1" as="geometry">
            <mxPoint x="1750" y="-490" as="sourcePoint" />
            <Array as="points">
              <mxPoint x="1745" y="-490" />
              <mxPoint x="1810" y="-490" />
              <mxPoint x="1810" y="-470" />
            </Array>
          </mxGeometry>
        </mxCell>
        <mxCell id="MgS43147Ba-5v7FGdyHG-102" value="Mensagem de resposta" style="html=1;verticalAlign=bottom;endArrow=open;dashed=1;endSize=8;curved=0;rounded=0;entryX=0.5;entryY=0.75;entryDx=0;entryDy=0;entryPerimeter=0;" edge="1" parent="1" source="MgS43147Ba-5v7FGdyHG-41" target="MgS43147Ba-5v7FGdyHG-39">
          <mxGeometry relative="1" as="geometry">
            <mxPoint x="1710" y="-650" as="sourcePoint" />
            <mxPoint x="1560" y="-650" as="targetPoint" />
          </mxGeometry>
        </mxCell>
        <mxCell id="MgS43147Ba-5v7FGdyHG-105" value="&lt;div&gt;&lt;br&gt;&lt;/div&gt;" style="endArrow=block;endFill=1;html=1;edgeStyle=orthogonalEdgeStyle;align=left;verticalAlign=top;rounded=0;" edge="1" parent="1" target="MgS43147Ba-5v7FGdyHG-104">
          <mxGeometry x="-0.6571" y="40" relative="1" as="geometry">
            <mxPoint x="1560" y="-420" as="sourcePoint" />
            <mxPoint x="1720" y="-420" as="targetPoint" />
            <Array as="points">
              <mxPoint x="1640" y="-419" />
            </Array>
            <mxPoint as="offset" />
          </mxGeometry>
        </mxCell>
        <mxCell id="MgS43147Ba-5v7FGdyHG-106" value="1" style="edgeLabel;resizable=0;html=1;align=left;verticalAlign=bottom;" connectable="0" vertex="1" parent="MgS43147Ba-5v7FGdyHG-105">
          <mxGeometry x="-1" relative="1" as="geometry" />
        </mxCell>
        <mxCell id="MgS43147Ba-5v7FGdyHG-108" value="Negócio = Sebrae" style="ellipse;whiteSpace=wrap;html=1;" vertex="1" parent="1">
          <mxGeometry x="1600" y="-460" width="90" height="40" as="geometry" />
        </mxCell>
        <mxCell id="MgS43147Ba-5v7FGdyHG-109" value="Tipos de operadores de interacao&amp;nbsp;&lt;div&gt;opt: execucao opcional&lt;/div&gt;&lt;div&gt;alt: execucao condicional&lt;/div&gt;&lt;div&gt;par: execucao paralela&lt;/div&gt;&lt;div&gt;loop: execucao de loop (iteração)&lt;/div&gt;&lt;div&gt;strict: ordem sequencial estrita&lt;/div&gt;&lt;div&gt;neg: interacao invalida&lt;/div&gt;&lt;div&gt;ref: interacao com outro diagrama&lt;/div&gt;&lt;div&gt;break: quebra de execucao&lt;/div&gt;&lt;div&gt;neg : negacao&lt;/div&gt;" style="text;html=1;align=left;verticalAlign=middle;whiteSpace=wrap;rounded=0;" vertex="1" parent="1">
          <mxGeometry x="1010" y="-600" width="290" height="30" as="geometry" />
        </mxCell>
      </root>
    </mxGraphModel>
  </diagram>
</mxfile>
